<svg width="15" height="15" viewBox="0 0 13 13" fill="none" xmlns="http://www.w3.org/2000/svg">
<path d="M6.5 7.4375C7.01777 7.4375 7.4375 7.01777 7.4375 6.5C7.4375 5.98223 7.01777 5.5625 6.5 5.5625C5.98223 5.5625 5.5625 5.98223 5.5625 6.5C5.5625 7.01777 5.98223 7.4375 6.5 7.4375Z" fill="white"/>
<path d="M12.6814 5.45L12.1877 3.875C12.1344 3.69297 12.0449 3.52355 11.9247 3.37683C11.8045 3.23011 11.656 3.1091 11.488 3.02103C11.32 2.93295 11.136 2.87961 10.947 2.86419C10.7579 2.84876 10.5677 2.87157 10.3877 2.93125L10.1752 3C10.0087 3.05503 9.83139 3.06899 9.65836 3.0407C9.48532 3.0124 9.3217 2.94269 9.18142 2.8375L9.11267 2.7875C8.97579 2.68273 8.86545 2.54727 8.79054 2.39202C8.71563 2.23677 8.67825 2.06609 8.68142 1.89375V1.71875C8.68446 1.32627 8.53161 0.94862 8.25642 0.66875C8.12553 0.536533 7.96981 0.431476 7.7982 0.359614C7.62659 0.287753 7.44247 0.250501 7.25642 0.25H5.66267C5.28028 0.254941 4.91533 0.410745 4.64727 0.683489C4.37921 0.956233 4.22974 1.32383 4.23142 1.70625V1.85625C4.23082 2.03767 4.18952 2.21664 4.11056 2.37998C4.03159 2.54331 3.91698 2.68685 3.77517 2.8L3.69392 2.8625C3.53726 2.98101 3.35403 3.05947 3.16015 3.09106C2.96626 3.12265 2.7676 3.10641 2.58142 3.04375C2.41043 2.98458 2.22921 2.96072 2.04874 2.97361C1.86826 2.9865 1.69227 3.03588 1.53142 3.11875C1.36396 3.20187 1.21539 3.31856 1.09496 3.46157C0.974536 3.60457 0.884829 3.77083 0.831424 3.95L0.318924 5.575C0.200076 5.94137 0.230555 6.33984 0.403742 6.68388C0.57693 7.02791 0.878844 7.28974 1.24392 7.4125H1.34392C1.51234 7.47561 1.66349 7.57755 1.78512 7.71003C1.90674 7.84252 1.99541 8.00182 2.04392 8.175L2.08142 8.275C2.1511 8.46633 2.1744 8.67146 2.14941 8.87354C2.12442 9.07563 2.05185 9.2689 1.93767 9.4375C1.70656 9.75224 1.60907 10.1455 1.66643 10.5318C1.72378 10.918 1.93133 11.266 2.24392 11.5L3.53767 12.4813C3.78264 12.6594 4.07857 12.7536 4.38142 12.75C4.46248 12.7579 4.54412 12.7579 4.62517 12.75C4.81274 12.7137 4.99094 12.6396 5.1489 12.5321C5.30686 12.4246 5.44127 12.2861 5.54392 12.125L5.68767 11.9188C5.78851 11.7741 5.92194 11.6552 6.07719 11.5716C6.23243 11.488 6.40516 11.4421 6.58142 11.4375C6.76615 11.433 6.94901 11.4753 7.11295 11.5605C7.27689 11.6458 7.41656 11.7712 7.51892 11.925L7.59392 12.0313C7.70049 12.1898 7.83839 12.3249 7.99913 12.4282C8.15987 12.5315 8.34005 12.6008 8.52858 12.6318C8.71711 12.6629 8.91 12.655 9.09536 12.6087C9.28073 12.5623 9.45465 12.4786 9.60642 12.3625L10.8752 11.4125C11.1752 11.1795 11.3746 10.8406 11.4328 10.4653C11.4909 10.0899 11.4032 9.70653 11.1877 9.39375L11.0252 9.15625C10.9275 9.00527 10.8635 8.83498 10.8376 8.657C10.8117 8.47903 10.8245 8.29757 10.8752 8.125C10.9268 7.94028 11.0226 7.7709 11.1544 7.63152C11.2862 7.49213 11.4499 7.38693 11.6314 7.325L11.7564 7.28125C12.1181 7.15574 12.4168 6.89452 12.5895 6.55279C12.7621 6.21106 12.795 5.8156 12.6814 5.45ZM6.50017 8.6875C6.06753 8.6875 5.6446 8.55921 5.28486 8.31884C4.92513 8.07847 4.64475 7.73683 4.47919 7.33712C4.31362 6.93741 4.2703 6.49757 4.35471 6.07324C4.43911 5.64891 4.64745 5.25913 4.95338 4.9532C5.25931 4.64728 5.64908 4.43894 6.07341 4.35453C6.49775 4.27013 6.93758 4.31345 7.33729 4.47901C7.73701 4.64458 8.07865 4.92496 8.31901 5.28469C8.55938 5.64442 8.68767 6.06735 8.68767 6.5C8.68767 7.08016 8.45721 7.63656 8.04697 8.0468C7.63673 8.45703 7.08034 8.6875 6.50017 8.6875Z" fill="white"/>
</svg>
