<svg width="14" height="14" viewBox="0 0 14 14" fill="none" xmlns="http://www.w3.org/2000/svg">
<path d="M7.7495 6.99699L13.3775 1.3635C13.4768 1.26372 13.5325 1.12865 13.5324 0.987892C13.5323 0.84713 13.4764 0.712142 13.377 0.612495C13.178 0.414495 12.8275 0.413495 12.6265 0.613495L7 6.24699L1.3715 0.611995C1.1715 0.414495 0.821003 0.415495 0.622003 0.612995C0.572609 0.662192 0.533508 0.720734 0.506982 0.785204C0.480455 0.849674 0.467035 0.918782 0.467503 0.988495C0.467503 1.1305 0.522503 1.2635 0.622003 1.362L6.25 6.9965L0.622503 12.6315C0.523196 12.7314 0.467583 12.8667 0.467864 13.0076C0.468145 13.1484 0.524298 13.2835 0.624003 13.383C0.720503 13.4785 0.857003 13.5335 0.998003 13.5335H1.001C1.1425 13.533 1.279 13.4775 1.3735 13.381L7 7.7475L12.6285 13.3825C12.728 13.4815 12.861 13.5365 13.002 13.5365C13.0717 13.5367 13.1408 13.5231 13.2053 13.4965C13.2697 13.4699 13.3283 13.4309 13.3776 13.3816C13.4269 13.3323 13.4659 13.2737 13.4925 13.2092C13.5191 13.1448 13.5327 13.0757 13.5325 13.006C13.5325 12.8645 13.4775 12.731 13.3775 12.6325L7.7495 6.99699Z" fill="black"/>
</svg>
