<svg width="14" height="8" viewBox="0 0 14 8" fill="none" xmlns="http://www.w3.org/2000/svg">
<path fill-rule="evenodd" clip-rule="evenodd" d="M0.646001 0.646008C0.692447 0.599445 0.747622 0.562502 0.808368 0.537296C0.869113 0.512089 0.934234 0.499115 1 0.499115C1.06577 0.499115 1.13089 0.512089 1.19163 0.537296C1.25238 0.562502 1.30756 0.599445 1.354 0.646008L7 6.29301L12.646 0.646008C12.6925 0.599521 12.7477 0.562644 12.8084 0.537485C12.8692 0.512326 12.9343 0.499377 13 0.499377C13.0657 0.499377 13.1308 0.512326 13.1916 0.537485C13.2523 0.562644 13.3075 0.599521 13.354 0.646008C13.4005 0.692496 13.4374 0.747686 13.4625 0.808425C13.4877 0.869164 13.5006 0.934265 13.5006 1.00001C13.5006 1.06575 13.4877 1.13085 13.4625 1.19159C13.4374 1.25233 13.4005 1.30752 13.354 1.35401L7.354 7.35401C7.30756 7.40057 7.25238 7.43751 7.19163 7.46272C7.13089 7.48793 7.06577 7.5009 7 7.5009C6.93423 7.5009 6.86911 7.48793 6.80837 7.46272C6.74762 7.43751 6.69245 7.40057 6.646 7.35401L0.646001 1.35401C0.599438 1.30756 0.562495 1.25239 0.537289 1.19164C0.512082 1.1309 0.499107 1.06578 0.499107 1.00001C0.499107 0.934241 0.512082 0.86912 0.537289 0.808375C0.562495 0.74763 0.599438 0.692454 0.646001 0.646008Z" fill="black"/>
</svg>
