<svg width="12" height="16" viewBox="0 0 12 16" fill="none" xmlns="http://www.w3.org/2000/svg">
<path d="M11.2 0.0999872L10 1.49999L8.3 0.0999872C8.21366 0.034591 8.10831 -0.000801017 8 -0.000801017C7.89169 -0.000801017 7.78634 0.034591 7.7 0.0999872L6 1.49999L4.3 0.0999872C4.21366 0.034591 4.10831 -0.000801017 4 -0.000801017C3.89169 -0.000801017 3.78634 0.034591 3.7 0.0999872L2 1.49999L0.8 0.0999872C0.46875 -0.146888 0 0.0874872 0 0.499987V15.5C0 15.9125 0.46875 16.1469 0.8 15.9L2 14.5L3.7 15.9C3.78634 15.9654 3.89169 16.0008 4 16.0008C4.10831 16.0008 4.21366 15.9654 4.3 15.9L6 14.5L7.7 15.9C7.78634 15.9654 7.89169 16.0008 8 16.0008C8.10831 16.0008 8.21366 15.9654 8.3 15.9L10 14.5L11.2 15.9C11.5281 16.1469 12 15.9125 12 15.5V0.499987C12 0.0874872 11.5312 -0.146888 11.2 0.0999872ZM10 11.25C10 11.3875 9.8875 11.5 9.75 11.5H2.25C2.1125 11.5 2 11.3875 2 11.25V10.75C2 10.6125 2.1125 10.5 2.25 10.5H9.75C9.8875 10.5 10 10.6125 10 10.75V11.25ZM10 8.24999C10 8.38749 9.8875 8.49999 9.75 8.49999H2.25C2.1125 8.49999 2 8.38749 2 8.24999V7.74999C2 7.61249 2.1125 7.49999 2.25 7.49999H9.75C9.8875 7.49999 10 7.61249 10 7.74999V8.24999ZM10 5.24999C10 5.38749 9.8875 5.49999 9.75 5.49999H2.25C2.1125 5.49999 2 5.38749 2 5.24999V4.74999C2 4.61249 2.1125 4.49999 2.25 4.49999H9.75C9.8875 4.49999 10 4.61249 10 4.74999V5.24999Z" fill="white"/>
</svg>
